<svg width="1203" height="570" viewBox="0 0 1203 570" fill="none" xmlns="http://www.w3.org/2000/svg">
<path d="M1.50043 435.723C20.8842 442.022 49.343 449.552 90.1203 456.416C137.64 464.414 173.587 458.345 193.491 452.877C243.817 439.05 298.176 392.57 326.99 356.229C339.582 340.348 331.338 311.358 322.353 285.98C313.509 261.001 289.924 249.715 275.024 232.938C271.068 228.484 269.639 221.507 268.787 215.191C267.934 208.876 268.503 202.531 276.283 194.266C296.867 172.398 347.334 150.908 398.495 132.874C416.266 126.61 419.491 138.436 421.146 145.893C427.659 175.237 419.451 229.713 409.913 270.851C402.352 303.458 376.957 322.862 354.352 337.038C329.761 352.46 301.078 348.974 279.183 356.781C270.957 359.715 270.565 367.062 271.176 372.148C273.77 393.753 306.003 406.507 351.33 422.074C375.762 430.466 408.597 434.897 451.131 445.017C465.869 448.524 483.002 450.987 497.751 455.913C509.444 459.819 472.311 497.382 443.912 520.199C433.912 528.233 429.709 521.989 427.445 515.021C417.603 484.722 418.353 455.446 423.5 428.675C432.144 383.711 455.796 357.144 497.409 276.865C527.704 218.42 536.589 195.035 544.244 167.376C548.299 152.726 566.165 122.499 590.008 84.5674C602.879 64.0907 641.465 47.8498 703.531 22.2363C762.852 -2.24429 798.208 -1.51667 804.136 6.49498C814.305 20.2378 813.2 52.2797 814.742 83.5237C816.036 109.745 796.803 162.975 773.974 228.313C759.069 270.974 753.363 295.788 733.64 356.835C726.099 380.174 696.935 419.529 659.995 471.475C633.818 508.287 620.283 525.193 614.104 527.93C576.856 544.429 557.097 391.566 554.061 354.746C551.651 325.511 585.87 310.926 628.622 290.412C657.134 276.73 691.922 283.058 736.34 294.279C753.79 298.687 778.108 310.642 786.515 315.881C794.922 321.12 786.316 321.12 779.199 321.784C772.082 322.448 766.716 323.775 765.787 318.117C758.053 271.013 810.848 240.397 823.653 224.375C828.234 218.643 821.842 211.564 815.804 207.316C803.194 198.445 750.036 188.826 680.282 174.92C655.386 169.957 652.008 167.762 649.496 163.878C646.985 159.994 645.493 154.109 645.212 148.95C644.069 127.946 680.82 94.4581 736.49 59.7886C750.37 51.1447 765.303 49.5407 771.652 50.5437C778.827 51.6771 764.423 82.0286 741.887 128.391C710.879 192.18 693.164 254.2 685.95 294.775C675.615 352.902 689.61 379.433 699.316 398.201C713.824 426.257 758.101 456.057 795.859 476.583C830.268 495.289 847.499 570.204 883.683 568.47C917.529 566.849 986.65 466.518 1009.98 458.287C1039.47 447.878 1060.28 519.45 1071.87 498.93C1080.19 484.211 1119.2 375.738 1137 413.5C1146.47 433.589 1181 431 1201.5 435.5" stroke="#000000" stroke-width="3" stroke-linecap="round"/>
</svg>
